<?xml version="1.0" standalone="no"?><!DOCTYPE svg PUBLIC "-//W3C//DTD SVG 1.1//EN" "http://www.w3.org/Graphics/SVG/1.1/DTD/svg11.dtd"><svg t="1750918724164" class="icon" viewBox="0 0 1024 1024" version="1.1" xmlns="http://www.w3.org/2000/svg" p-id="2415" xmlns:xlink="http://www.w3.org/1999/xlink" width="200" height="200"><path d="M864.361931 336.578207a74.575448 74.575448 0 0 0-43.890759-37.393655L438.625103 175.351172a75.564138 75.564138 0 0 0-71.68 14.018207L260.978759 278.49269l-19.703173 4.484413a75.917241 75.917241 0 0 0-56.461241 56.531863l-31.532138 136.615724a74.928552 74.928552 0 0 0 20.091586 70.232276l283.789241 283.789241c14.230069 14.265379 33.156414 22.068966 53.353932 22.068965 20.126897 0 39.017931-7.803586 53.28331-22.068965l157.696-157.696 2.471724 0.070621c11.934897 0 23.410759-2.754207 34.180414-8.262621 17.902345-9.18069 31.214345-24.752552 37.428965-43.926069l73.304276-226.26869a74.646069 74.646069 0 0 0-4.519724-57.485241zM394.946207 281.317517c11.617103 0 22.56331 4.555034 30.790621 12.747035l283.824551 283.753931a43.678897 43.678897 0 0 1 0 61.651862l-168.218482 168.183172c-7.838897 7.909517-19.032276 12.358621-30.790621 12.358621s-22.951724-4.449103-30.861242-12.358621l-283.753931-283.789241a43.184552 43.184552 0 0 1-11.652413-40.571586l31.532138-136.686345c3.707586-16.136828 16.525241-28.883862 32.626758-32.662069l136.615724-31.496828c3.283862-0.776828 6.603034-1.129931 9.886897-1.129931z m359.141517 327.362207a75.211034 75.211034 0 0 0-22.068965-53.353931l-283.859862-283.824552a75.917241 75.917241 0 0 0-70.232276-20.056275L329.092414 262.708966l58.262069-49.010759a43.325793 43.325793 0 0 1 41.454345-8.086069l381.775448 123.798069a43.325793 43.325793 0 0 1 28.071724 54.801655l-73.339586 226.26869a42.195862 42.195862 0 0 1-14.583173 20.444689c2.259862-7.13269 3.354483-14.653793 3.354483-22.245517z" fill="#666666" p-id="2416"></path><path d="M367.474759 486.117517c-31.461517 17.160828-70.656 6.17931-87.287173-24.364138-16.701793-30.578759-4.625655-69.384828 26.835862-86.545655 31.496828-17.160828 70.656-6.249931 87.357793 24.364138 1.659586 3.142621 3.072 6.426483 4.307862 10.451862a9.18069 9.18069 0 0 1-6.002758 11.617104 9.039448 9.039448 0 0 1-11.546483-5.720276 48.904828 48.904828 0 0 0-3.10731-7.450483c-11.934897-21.786483-39.90069-29.66069-62.39338-17.44331-22.457379 12.25269-31.037793 40.006621-19.138206 61.828413 11.864276 21.857103 39.865379 29.66069 62.358068 17.443311 2.153931-1.094621 4.343172-2.683586 6.885518-4.660966a9.18069 9.18069 0 0 1 12.958896 1.200552 9.039448 9.039448 0 0 1-1.553655 12.747034 66.665931 66.665931 0 0 1-9.675034 6.532414z" fill="#666666" p-id="2417"></path></svg>